<svg width="88" height="88" viewBox="0 0 88 88" fill="none" xmlns="http://www.w3.org/2000/svg">
<g filter="url(#filter0_d_3055_240)">
<circle cx="42" cy="40" r="36" fill="#B59152"/>
</g>
<g clip-path="url(#clip0_3055_240)">
<path d="M44.1774 33.7349C43.927 33.2385 43.1757 32.9903 42.6748 32.9903C42.1739 32.9903 41.4226 33.2385 41.1722 33.7349L28.9009 50.8601C28.4 51.6047 28.4 52.8457 29.4018 53.342C29.6522 53.5902 30.1531 53.5902 30.4035 53.5902C30.9044 53.5902 31.6557 53.342 31.9061 52.8457L42.4244 37.9541L53.4435 52.8457C53.9444 53.5902 55.1966 53.8384 55.9479 53.342C56.6992 52.8457 56.9496 51.6047 56.4487 50.8601L44.1774 33.7349ZM55.1966 24.7999H30.4035C29.4018 24.7999 28.4 25.5445 28.4 26.7855C28.4 28.0264 29.1513 28.771 30.4035 28.771H55.1966C56.1983 28.771 57.2 28.0264 57.2 26.7855C57.2 25.5445 56.1983 24.7999 55.1966 24.7999Z" fill="#F2F0EC"/>
</g>
<defs>
<filter id="filter0_d_3055_240" x="0" y="0" width="88" height="88" filterUnits="userSpaceOnUse" color-interpolation-filters="sRGB">
<feFlood flood-opacity="0" result="BackgroundImageFix"/>
<feColorMatrix in="SourceAlpha" type="matrix" values="0 0 0 0 0 0 0 0 0 0 0 0 0 0 0 0 0 0 127 0" result="hardAlpha"/>
<feOffset dx="2" dy="4"/>
<feGaussianBlur stdDeviation="4"/>
<feComposite in2="hardAlpha" operator="out"/>
<feColorMatrix type="matrix" values="0 0 0 0 0 0 0 0 0 0 0 0 0 0 0 0 0 0 0.2 0"/>
<feBlend mode="normal" in2="BackgroundImageFix" result="effect1_dropShadow_3055_240"/>
<feBlend mode="normal" in="SourceGraphic" in2="effect1_dropShadow_3055_240" result="shape"/>
</filter>
<clipPath id="clip0_3055_240">
<rect width="28.8" height="28.8" fill="white" transform="translate(28.4 24.7999)"/>
</clipPath>
</defs>
</svg>
