<svg width="50" height="50" viewBox="0 0 50 50" fill="none" xmlns="http://www.w3.org/2000/svg">
    <mask id="mask0_2865_1177" style="mask-type:luminance" maskUnits="userSpaceOnUse" x="-1" y="0"
        width="51" height="50">
        <path d="M-0.000495911 0H49.9922V50H-0.000495911V0Z" fill="white" />
    </mask>
    <g mask="url(#mask0_2865_1177)">
        <path
            d="M25.0232 49.9391C38.8104 49.9391 50 38.7599 50 24.9854C50 11.2109 38.8104 0.0317383 25.0232 0.0317383C11.2359 0.0317383 0.0463371 11.2109 0.0463371 24.9854C0.0463371 38.7599 11.2359 49.9391 25.0232 49.9391ZM25.0232 2.40222C37.4616 2.40222 47.6273 12.5585 47.6273 24.9854C47.6273 37.4123 37.4866 47.5687 25.0232 47.5687C12.5598 47.5687 2.41902 37.4373 2.41902 24.9854C2.41902 12.5336 12.5848 2.40222 25.0232 2.40222Z"
            fill="#B59152" />
    </g>
    <path
        d="M23.2237 24.9855L13.7074 15.478C13.233 15.004 13.233 14.2303 13.7074 13.6814L13.7824 13.6064C14.2568 13.1318 15.0313 13.1318 15.5063 13.6064L25.022 23.1889L34.5383 13.6814C35.0127 13.2074 35.7872 13.2074 36.2616 13.6814L36.3366 13.7563C36.811 14.2303 36.811 15.004 36.3366 15.5529L26.8203 24.9855L36.3366 34.493C36.811 34.9675 36.811 35.7407 36.3366 36.2896L36.2616 36.3645C35.7872 36.8385 35.0127 36.8385 34.5383 36.3645L25.022 26.7821L15.5063 36.2896C15.0319 36.7635 14.2574 36.7635 13.7824 36.2896L13.7074 36.2146C13.233 35.7407 13.233 34.9669 13.7074 34.418L23.2237 24.9855Z"
        fill="#B59152" />
</svg>