<svg width="45" height="45" viewBox="0 0 45 45" fill="none" xmlns="http://www.w3.org/2000/svg">
<g opacity="0.5">
<mask id="mask0_2337_127" style="mask-type:luminance" maskUnits="userSpaceOnUse" x="0" y="0" width="45" height="45">
<path d="M-1.96672e-06 44.9934L0 0L44.9868 1.96644e-06L44.9868 44.9934L-1.96672e-06 44.9934Z" fill="white"/>
</mask>
<g mask="url(#mask0_2337_127)">
<path d="M28.7923 18.4262C29.4443 17.7743 30.5007 17.7743 31.1526 18.4262C31.8046 19.0782 31.8046 20.1347 31.1526 20.7867L23.7572 28.1824C23.7347 28.2274 23.6898 28.2724 23.6448 28.3174C23.3078 28.6544 22.8803 28.8119 22.4533 28.8119C22.0264 28.8119 21.5769 28.6324 21.2619 28.3174C21.2169 28.2724 21.1944 28.2274 21.1494 28.1824L13.7321 20.7867C13.0802 20.1347 13.0802 19.0782 13.7321 18.4262C14.3841 17.7743 15.4405 17.7743 16.0924 18.4262L22.4539 24.788L28.7923 18.4262Z" fill="white"/>
</g>
<mask id="mask1_2337_127" style="mask-type:luminance" maskUnits="userSpaceOnUse" x="0" y="0" width="45" height="45">
<path d="M-1.96672e-06 44.9934L0 0L44.9868 1.96644e-06L44.9868 44.9934L-1.96672e-06 44.9934Z" fill="white"/>
</mask>
<g mask="url(#mask1_2337_127)">
<path opacity="0.8" d="M39.9868 22.489C39.9868 17.8178 38.1663 13.4089 34.8578 10.1195C31.5497 6.83054 27.1561 4.99341 22.4826 4.99341C17.8091 4.99341 13.398 6.81302 10.107 10.1195C3.28009 16.9431 3.28009 28.0525 10.107 34.8761C16.9335 41.6992 28.0488 41.6992 34.8753 34.8761C38.1663 31.5692 39.9868 27.1777 39.9868 22.489ZM7.58649 22.489C7.58649 18.6751 9.03948 14.8608 11.945 11.9741C14.763 9.15716 18.4916 7.61775 22.4826 7.61775C26.4736 7.61775 30.2018 9.15716 33.0027 11.9741C35.821 14.7911 37.3787 18.5175 37.3612 22.489C37.3612 26.4781 35.821 30.2044 33.0027 33.0039C27.1911 38.8126 17.7565 38.8126 11.945 33.0039C9.05657 30.1173 7.58649 26.303 7.58649 22.489Z" fill="white"/>
</g>
</g>
</svg>
