<svg width="29" height="29" viewBox="0 0 29 29" fill="none" xmlns="http://www.w3.org/2000/svg">
<mask id="mask0_2594_4699" style="mask-type:luminance" maskUnits="userSpaceOnUse" x="0" y="0" width="29" height="29">
<path d="M-1.23634e-06 28.2843L0 0L28.2801 1.23616e-06L28.2801 28.2843L-1.23634e-06 28.2843Z" fill="white"/>
</mask>
<g mask="url(#mask0_2594_4699)">
<path d="M18.0994 11.5833C18.5092 11.1734 19.1733 11.1734 19.5831 11.5833C19.993 11.9931 19.993 12.6572 19.5831 13.0671L14.9342 17.7163C14.92 17.7446 14.8918 17.7729 14.8635 17.8012C14.6517 18.013 14.3829 18.112 14.1145 18.112C13.8461 18.112 13.5636 17.9992 13.3656 17.8012C13.3373 17.7729 13.3231 17.7446 13.2948 17.7163L8.63208 13.0671C8.22225 12.6572 8.22225 11.9931 8.63208 11.5833C9.04192 11.1734 9.70601 11.1734 10.1158 11.5833L14.1149 15.5825L18.0994 11.5833Z" fill="#B59152"/>
</g>
<mask id="mask1_2594_4699" style="mask-type:luminance" maskUnits="userSpaceOnUse" x="0" y="0" width="29" height="29">
<path d="M-1.23634e-06 28.2843L0 0L28.2801 1.23616e-06L28.2801 28.2843L-1.23634e-06 28.2843Z" fill="white"/>
</mask>
<g mask="url(#mask1_2594_4699)">
<path d="M28.2457 14.1269C28.2457 10.3541 26.7761 6.79299 24.1052 4.13616C21.4347 1.47968 17.888 -0.00414961 14.1153 -0.00414977C10.3426 -0.00414994 6.7817 1.46554 4.125 4.13616C-1.38607 9.6475 -1.38607 18.6205 4.125 24.1319C9.63572 29.6429 18.6087 29.6429 24.1194 24.1319C26.7761 21.4609 28.2457 17.914 28.2457 14.1269ZM2.0903 14.1269C2.0903 11.0465 3.26324 7.96563 5.60876 5.63414C7.88356 3.35888 10.8935 2.11551 14.1153 2.11551C17.3371 2.11551 20.3467 3.35888 22.6077 5.63414C24.8828 7.9094 26.1403 10.9192 26.1261 14.1269C26.1261 17.3489 24.8828 20.3586 22.6077 22.6197C17.9163 27.3114 10.3002 27.3114 5.60876 22.6197C3.27704 20.2883 2.0903 17.2074 2.0903 14.1269Z" fill="#B59152"/>
</g>
</svg>
