<svg width="31" height="15" viewBox="0 0 31 15" fill="none" xmlns="http://www.w3.org/2000/svg">
    <mask id="mask0_2865_1208" style="mask-type:luminance" maskUnits="userSpaceOnUse" x="0" y="0"
        width="31" height="15">
        <path d="M0.499998 -2.62268e-06L30.5 0L30.5 15L0.499997 15L0.499998 -2.62268e-06Z"
            fill="white" />
    </mask>
    <g mask="url(#mask0_2865_1208)">
        <path
            d="M0.506834 1.07434C0.506834 0.808513 0.603188 0.542685 0.800453 0.337057C1.19498 -0.067434 1.82454 -0.0674339 2.21387 0.337057L13.3818 11.9462C14.5498 13.1597 16.4534 13.1597 17.6221 11.9462L28.7946 0.342471C29.1839 -0.0620203 29.8187 -0.0620202 30.208 0.342471C30.5973 0.752374 30.5973 1.40646 30.208 1.81095L19.04 13.414C17.0882 15.4419 13.9202 15.4419 11.9678 13.414L0.795246 1.80554C0.603189 1.606 0.506834 1.34017 0.506834 1.07434Z"
            fill="#B59152" />
    </g>
</svg>