<svg width="45" height="45" viewBox="0 0 45 45" fill="none" xmlns="http://www.w3.org/2000/svg">
<mask id="mask0_2334_3524" style="mask-type:luminance" maskUnits="userSpaceOnUse" x="0" y="0" width="45" height="45">
<path d="M-3.8147e-06 0.0131797L44.9934 0.0131836L44.9934 45L-7.74757e-06 45L-3.8147e-06 0.0131797Z" fill="white"/>
</mask>
<g mask="url(#mask0_2334_3524)">
<path d="M26.5672 28.8055C27.2191 29.4574 27.2191 30.5138 26.5672 31.1658C25.9152 31.8177 24.8587 31.8177 24.2067 31.1658L16.811 23.7704C16.766 23.7479 16.721 23.7029 16.676 23.6579C16.339 23.321 16.1815 22.8935 16.1815 22.4665C16.1815 22.0396 16.361 21.5901 16.676 21.2751C16.721 21.2301 16.766 21.2076 16.811 21.1626L24.2067 13.7453C24.8587 13.0934 25.9152 13.0934 26.5672 13.7453C27.2191 14.3973 27.2191 15.4537 26.5672 16.1056L20.2054 22.4671L26.5672 28.8055Z" fill="white"/>
</g>
<mask id="mask1_2334_3524" style="mask-type:luminance" maskUnits="userSpaceOnUse" x="0" y="0" width="45" height="45">
<path d="M-3.8147e-06 0.0131797L44.9934 0.0131836L44.9934 45L-7.74757e-06 45L-3.8147e-06 0.0131797Z" fill="white"/>
</mask>
<g mask="url(#mask1_2334_3524)">
<path opacity="0.8" d="M22.5044 40C27.1756 40 31.5845 38.1795 34.8739 34.871C38.1629 31.5628 40 27.1693 40 22.4958C40 17.8223 38.1804 13.4112 34.8739 10.1202C28.0504 3.29327 16.9409 3.29327 10.1173 10.1202C3.29422 16.9467 3.29422 28.062 10.1173 34.8885C13.4243 38.1795 17.8157 40 22.5044 40ZM22.5044 7.59967C26.3183 7.59967 30.1327 9.05266 33.0193 11.9582C35.8362 14.7761 37.3757 18.5048 37.3757 22.4958C37.3757 26.4868 35.8362 30.215 33.0193 33.0158C30.2023 35.8342 26.4759 37.3919 22.5044 37.3744C18.5153 37.3744 14.789 35.8342 11.9895 33.0158C6.18083 27.2043 6.18083 17.7697 11.9895 11.9582C14.8761 9.06975 18.6905 7.59967 22.5044 7.59967Z" fill="white"/>
</g>
</svg>
