<svg width="61" height="61" viewBox="0 0 61 61" fill="none" xmlns="http://www.w3.org/2000/svg">
<g filter="url(#filter0_d_3109_472)">
<ellipse cx="28.5" cy="26.5" rx="22.5" ry="22.5" transform="rotate(-90 28.5 26.5)" fill="#B59152"/>
</g>
<mask id="mask0_3109_472" style="mask-type:luminance" maskUnits="userSpaceOnUse" x="10" y="8" width="36" height="36">
<path d="M10.9939 8.99292L46 8.99292L46 43.9939L10.9939 43.9939L10.9939 8.99292Z" fill="white"/>
</mask>
<g mask="url(#mask0_3109_472)">
<path d="M31.664 31.3941C32.1712 31.9013 32.1712 32.7233 31.664 33.2305C31.1567 33.7377 30.3348 33.7377 29.8275 33.2305L24.0734 27.4767C24.0384 27.4592 24.0034 27.4242 23.9684 27.3892C23.7062 27.127 23.5837 26.7944 23.5837 26.4622C23.5837 26.13 23.7233 25.7804 23.9684 25.5353C24.0034 25.5003 24.0384 25.4828 24.0734 25.4478L29.8275 19.6769C30.3348 19.1696 31.1567 19.1696 31.664 19.6769C32.1712 20.1841 32.1712 21.006 31.664 21.5133L26.7144 26.4626L31.664 31.3941Z" fill="#F3F0EC"/>
</g>
<defs>
<filter id="filter0_d_3109_472" x="0" y="0" width="61" height="61" filterUnits="userSpaceOnUse" color-interpolation-filters="sRGB">
<feFlood flood-opacity="0" result="BackgroundImageFix"/>
<feColorMatrix in="SourceAlpha" type="matrix" values="0 0 0 0 0 0 0 0 0 0 0 0 0 0 0 0 0 0 127 0" result="hardAlpha"/>
<feOffset dx="2" dy="4"/>
<feGaussianBlur stdDeviation="4"/>
<feComposite in2="hardAlpha" operator="out"/>
<feColorMatrix type="matrix" values="0 0 0 0 0 0 0 0 0 0 0 0 0 0 0 0 0 0 0.2 0"/>
<feBlend mode="normal" in2="BackgroundImageFix" result="effect1_dropShadow_3109_472"/>
<feBlend mode="normal" in="SourceGraphic" in2="effect1_dropShadow_3109_472" result="shape"/>
</filter>
</defs>
</svg>
