<svg width="9" height="10" viewBox="0 0 9 10" fill="none" xmlns="http://www.w3.org/2000/svg">
<mask id="mask0_3300_354" style="mask-type:luminance" maskUnits="userSpaceOnUse" x="0" y="0" width="9" height="10">
<path d="M8.39119 0H0V9.98834H8.39119V0Z" fill="white"/>
</mask>
<g mask="url(#mask0_3300_354)">
<path d="M4.19044 0.0117188C1.87743 0.0147779 0.00269121 1.88819 -0.00183105 4.20119C-0.00183105 6.43492 2.99457 9.97612 4.19044 9.97612C5.38631 9.97612 8.38271 6.43492 8.38271 4.20119C8.37805 1.88819 6.50344 0.0147779 4.19044 0.0117188ZM2.29987 4.20119C2.29654 3.43587 2.75502 2.7441 3.46116 2.44882C4.16729 2.15354 4.9817 2.31328 5.52411 2.85329C6.06651 3.39331 6.22971 4.20705 5.93763 4.91451C5.64554 5.62185 4.95563 6.08338 4.1903 6.08338C3.15018 6.08206 2.30599 5.24145 2.29987 4.20119Z" fill="white"/>
</g>
</svg>
