<svg width="94" height="41" viewBox="0 0 94 41" fill="none" xmlns="http://www.w3.org/2000/svg">
<mask id="mask0_2235_2633" style="mask-type:luminance" maskUnits="userSpaceOnUse" x="0" y="0" width="94" height="41">
<path fill-rule="evenodd" clip-rule="evenodd" d="M0 0H93.0385V41H0V0Z" fill="white"/>
</mask>
<g mask="url(#mask0_2235_2633)">
<path fill-rule="evenodd" clip-rule="evenodd" d="M41.2428 15.9396C40.866 15.9396 40.5722 15.9622 40.2833 15.9346C39.9116 15.8971 39.7935 16.0397 39.796 16.4047C39.8136 19.2028 39.8136 22.0009 39.8237 24.799C39.8237 25.0641 39.8111 25.3417 39.8764 25.5917C39.9116 25.7292 40.0849 25.9068 40.218 25.9293C41.0695 26.0593 41.18 25.9543 41.2076 25.1016C41.2101 24.9666 41.2152 24.8365 41.2152 24.7015C41.2252 22.6786 41.2352 20.6582 41.2428 18.6352C41.2478 17.76 41.2428 16.8874 41.2428 15.9396ZM53.5778 20.8082H53.6004C53.6004 19.5054 53.6079 18.2001 53.5979 16.8999C53.5903 15.6971 53.726 15.9847 52.6208 15.9346C52.2817 15.9171 52.1762 16.0447 52.1762 16.3722C52.1813 18.3302 52.1662 20.2906 52.1712 22.251C52.1737 23.3312 52.2014 24.4115 52.229 25.4892C52.234 25.6367 52.2717 25.8468 52.3722 25.9093C52.8645 26.2268 53.5702 25.8618 53.5753 25.2891C53.5853 23.7938 53.5778 22.3035 53.5778 20.8082ZM34.7626 35.3663C34.7626 36.9266 34.7576 38.4845 34.7626 40.0473C34.7676 40.9975 34.627 40.84 35.5914 40.88C35.9933 40.8925 36.0787 40.7474 36.0787 40.3724C36.0812 37.1742 36.1063 33.976 36.1214 30.7753C36.1239 29.7601 36.2269 29.9426 35.2448 29.9026C34.8379 29.8851 34.75 30.0402 34.7551 30.4077C34.7726 32.0606 34.7626 33.7134 34.7626 35.3663ZM44.2568 9.13819H43.5033C42.9507 9.13819 42.9482 9.13819 42.9482 9.67831C42.9482 13.134 42.9457 16.5898 42.9507 20.043C42.9532 21.8334 42.9683 23.6213 42.9834 25.4092C42.9859 25.5642 43.0135 25.8393 43.0688 25.8518C43.3878 25.9118 43.7243 25.9393 44.0483 25.9068C44.1187 25.8993 44.2116 25.6092 44.2141 25.4492C44.2342 20.2331 44.2442 15.0144 44.2568 9.79833C44.2568 9.60079 44.2568 9.40325 44.2568 9.13819ZM26.2379 35.3713H26.2354C26.2354 37.0517 26.2479 38.732 26.2278 40.4124C26.2228 40.79 26.3509 40.88 26.7101 40.88C28.4381 40.8625 30.1687 40.875 31.8967 40.87C32.8612 40.865 32.6929 40.9975 32.7256 40.0423C32.7407 39.6397 32.5849 39.5447 32.2107 39.5497C30.8443 39.5672 29.4755 39.5472 28.1091 39.5697C27.7675 39.5747 27.6821 39.4697 27.6846 39.1371C27.6921 36.3715 27.6796 33.6034 27.6771 30.8353C27.6771 29.7801 27.8579 29.9301 26.7101 29.9001C26.3434 29.8901 26.2253 30.0002 26.2303 30.3727C26.2479 32.0381 26.2379 33.7059 26.2379 35.3713ZM50.2749 9.15569C49.9559 9.15569 49.7273 9.15069 49.5013 9.1582C48.8959 9.1732 48.8959 9.1757 48.8909 9.76082C48.8758 12.724 48.8557 15.6846 48.8507 18.6452C48.8482 20.9257 48.8683 23.2062 48.8859 25.4867C48.8859 25.6242 48.9386 25.8743 48.9914 25.8793C49.343 25.9243 49.7097 25.9543 50.0588 25.8993C50.1392 25.8868 50.2171 25.5467 50.2171 25.3567C50.2422 20.2206 50.2573 15.0845 50.2749 9.94836V9.15569ZM58.4253 40.8675C56.9836 37.1017 55.6625 33.4009 54.1178 29.7526C52.4048 33.3784 50.9455 37.0567 49.446 40.845C49.9006 40.845 50.2523 40.835 50.6039 40.8475C50.8777 40.8575 51.0183 40.7374 51.1062 40.4849C51.2971 39.9323 51.5156 39.3872 51.704 38.832C51.7844 38.602 51.915 38.537 52.1536 38.537C53.3718 38.5445 54.5925 38.5395 55.8107 38.5245C56.0417 38.5195 56.1422 38.5995 56.2075 38.8145C56.3984 39.4122 56.6018 40.0048 56.8179 40.5924C56.858 40.6974 56.9711 40.85 57.0565 40.855C57.4784 40.88 57.9054 40.8675 58.4253 40.8675ZM47.2307 13.0065H47.2734V0.881431C47.2734 0.696391 47.2508 0.508851 47.2634 0.323812C47.2809 0.0687572 47.1554 -0.0112599 46.9268 0.00124279C46.8062 0.00624386 46.6857 0.00124279 46.5651 0.00374333C45.9573 0.0112449 45.9523 0.0112449 45.9523 0.628877C45.9548 6.97773 45.9523 13.3266 45.9598 19.6729C45.9623 21.5959 45.9849 23.5138 46.005 25.4367C46.0075 25.5867 46.0502 25.8618 46.108 25.8718C46.4295 25.9218 46.7686 25.9368 47.0901 25.8918C47.1554 25.8843 47.2232 25.5792 47.2232 25.4092C47.2307 21.2758 47.2307 17.1399 47.2307 13.0065ZM67.5328 40.96C67.5654 40.6399 67.6257 40.3199 67.6282 39.9998C67.6348 37.9738 67.6392 35.9488 67.6415 33.9235C67.6427 32.8443 67.6433 31.7649 67.6433 30.6853C67.6433 29.9026 67.6332 29.9276 66.8571 29.8976C66.4477 29.8826 66.3372 30.0152 66.3372 30.4177C66.3397 32.5107 66.3146 34.6036 66.2895 36.6966C66.287 36.8766 66.1965 37.0567 66.1463 37.2367C65.9906 37.1142 65.8298 36.9916 65.6741 36.8641C65.654 36.8491 65.6465 36.8191 65.6289 36.7991C64.373 35.0887 63.1197 33.3759 61.8538 31.673C61.4745 31.1579 61.0601 30.6678 60.6457 30.1777C60.5527 30.0677 60.3895 30.0177 60.2564 29.9401C60.1936 30.0902 60.0956 30.2352 60.073 30.3902C60.0328 30.6803 60.0278 30.9779 60.0253 31.2704C60.0203 34.3211 60.0178 37.3742 60.0127 40.4299C60.0127 40.4949 59.9952 40.5749 60.0228 40.6249C60.078 40.7149 60.1559 40.8475 60.2338 40.855C60.5754 40.88 60.9195 40.865 61.3716 40.865V33.1933L61.5298 33.1583C62.3885 34.1836 63.1753 35.2631 63.9467 36.3542C65.055 37.9215 66.1316 39.5125 67.3444 41C67.4072 40.985 67.47 40.975 67.5328 40.96ZM46.0678 34.136C46.1155 34.141 46.1632 34.1485 46.2109 34.1535C46.2737 34.3786 46.3566 34.6011 46.4018 34.8337C46.7685 36.7141 47.1252 38.5995 47.4894 40.4824C47.5095 40.5974 47.5522 40.8 47.5974 40.8025C47.9365 40.83 48.2881 40.8525 48.6196 40.785C48.6875 40.775 48.7452 40.3849 48.7076 40.1898C48.3283 38.2669 47.9264 36.3465 47.5321 34.4261C47.2533 33.0833 46.9795 31.738 46.6831 30.3977C46.6454 30.2302 46.4847 30.0852 46.3792 29.9326C46.2411 30.0652 46.0527 30.1777 45.9698 30.3427C45.8291 30.6128 45.7437 30.9103 45.6533 31.2029C45.0329 33.1908 44.4226 35.1788 43.7997 37.1642C43.7444 37.3417 43.6339 37.5018 43.4983 37.7668C43.3727 37.5043 43.2823 37.3567 43.2295 37.1992C42.6694 35.5313 42.1168 33.8585 41.5517 32.1931C41.3206 31.5105 41.067 30.8378 40.8032 30.1677C40.763 30.0677 40.6224 29.9626 40.5169 29.9501C40.4466 29.9426 40.3235 30.0802 40.2858 30.1777C40.1853 30.4252 40.0974 30.6803 40.0447 30.9404C39.6303 33.0608 39.2209 35.1788 38.814 37.3017C38.618 38.3219 38.4272 39.3422 38.2438 40.3649C38.2187 40.5024 38.2011 40.6849 38.2689 40.785C38.4221 41.0125 39.3414 40.8475 39.4243 40.5749C39.5424 40.1973 39.6328 39.8073 39.7081 39.4147C40.0095 37.8043 40.2984 36.1915 40.6023 34.5786C40.6349 34.4186 40.7379 34.2686 40.8083 34.111C40.861 34.1135 40.9137 34.116 40.9665 34.1185C41.3709 35.2588 41.7727 36.4015 42.1771 37.5418C42.584 38.677 42.9909 39.8097 43.3953 40.945C43.4556 40.945 43.5184 40.9425 43.5787 40.9425C44.5532 38.7295 45.0857 36.3465 46.0678 34.136ZM93.0315 24.604C92.8658 24.5965 92.7603 24.5865 92.6548 24.5865C86.5815 24.5815 80.5082 24.5765 74.4349 24.5715C68.7635 24.5665 63.0946 24.564 57.4232 24.559C56.8505 24.559 56.8404 24.549 56.8329 23.9764C56.8203 22.9511 56.8229 21.9209 56.7977 20.8957C56.7776 19.988 56.9057 20.118 55.9639 20.0955C55.5971 20.088 55.4766 20.2106 55.4816 20.5756C55.4992 22.0985 55.4841 23.6163 55.4967 25.1391C55.5042 25.9768 55.4012 25.9193 56.2753 25.9193L92.5116 25.9043C92.592 25.9043 92.69 25.9318 92.7477 25.8943C92.8557 25.8293 93.0089 25.7317 93.0215 25.6342C93.0542 25.3066 93.0315 24.9741 93.0315 24.604ZM0.00064329 24.5865C0.00064329 24.8866 -0.00186841 25.1116 0.00064329 25.3392C0.00064329 25.9018 0.000643273 25.9018 0.565776 25.9018C12.5215 25.9018 24.4772 25.9018 36.4329 25.8993C36.7016 25.8993 36.9679 25.8918 37.2366 25.9018C37.4652 25.9118 37.5707 25.8493 37.5682 25.5867C37.5581 24.2289 37.5682 22.8711 37.5682 21.5133C37.5707 21.0682 37.5682 20.6206 37.5682 20.1405C37.2216 20.1405 36.9402 20.148 36.664 20.138C36.3098 20.1205 36.2068 20.2906 36.2118 20.6256C36.2219 21.6384 36.2068 22.6511 36.1993 23.6663C36.1918 24.694 36.2495 24.5615 35.28 24.564C23.686 24.574 12.092 24.579 0.49796 24.5865H0.00064329Z" fill="#B59152"/>
</g>
<path fill-rule="evenodd" clip-rule="evenodd" d="M43.4767 40.9975C43.4133 40.9975 43.3499 41 43.2866 41C42.8587 39.8623 42.4309 38.7247 42.0057 37.587C41.5805 36.4443 41.158 35.3016 40.7328 34.1589C40.6773 34.1564 40.6219 34.1539 40.5664 34.1514C40.4925 34.3093 40.3816 34.4571 40.3499 34.62C40.0303 36.2338 39.7266 37.8526 39.4071 39.4639C39.3305 39.8598 39.2328 40.2507 39.1113 40.6291C39.0241 40.9023 38.0575 41.0677 37.8965 40.8396C37.8251 40.7394 37.8436 40.5565 37.8674 40.4186C38.0628 39.3937 38.2635 38.3713 38.4695 37.3489C38.8974 35.2214 39.3278 33.0964 39.7636 30.9739C39.819 30.7133 39.9115 30.4577 40.0145 30.2096C40.0567 30.1119 40.1861 29.9741 40.2601 29.9816C40.371 29.9941 40.5189 30.0994 40.5611 30.1996C40.8384 30.8712 41.1025 31.5453 41.3481 32.2294C41.9423 33.8983 42.5207 35.5747 43.1123 37.2462C43.1677 37.404 43.2601 37.5519 43.3948 37.815C43.5348 37.5494 43.6536 37.389 43.7117 37.2111C44.3667 35.2214 45.0084 33.2292 45.6581 31.237C45.7558 30.9439 45.8456 30.6456 45.9909 30.3725C46.0806 30.2096 46.2761 30.0969 46.424 29.9615C46.5349 30.1169 46.7039 30.2622 46.7435 30.4301C47.0551 31.7733 47.343 33.1215 47.6361 34.4671C48.0508 36.3917 48.4707 38.3137 48.8721 40.2432C48.9117 40.4387 48.851 40.8271 48.7797 40.8396C48.4311 40.9073 48.0613 40.8847 47.7022 40.8572C47.6573 40.8547 47.6124 40.6517 47.5886 40.5364C47.2083 38.6495 46.8307 36.76 46.4451 34.8731C46.4002 34.6425 46.313 34.4195 46.247 34.194C46.1968 34.189 46.1467 34.1815 46.0965 34.1765C45.0613 36.3917 44.504 38.7798 43.4767 40.9975Z" fill="#B59152"/>
<path fill-rule="evenodd" clip-rule="evenodd" d="M52.0054 26.7951C52.04 26.7951 52.0558 26.7951 52.0684 26.7982C52.0716 26.7982 52.0716 26.8109 52.0716 26.8203C52.0558 26.814 52.04 26.8077 52.0054 26.7951Z" fill="#214C89"/>
<path fill-rule="evenodd" clip-rule="evenodd" d="M53.7911 33.1378C53.9327 33.5285 54.0841 33.9193 54.2136 34.3175C54.5164 35.2633 54.8192 36.204 55.1049 37.1548C55.2832 37.7496 55.2197 37.8367 54.6214 37.8417C53.9059 37.8492 53.1879 37.8492 52.4748 37.8268C52.0279 37.8118 51.9619 37.7123 52.1085 37.2892C52.5334 36.0373 52.9681 34.7904 53.4077 33.5435C53.4614 33.3941 53.5615 33.2597 53.6397 33.1154L53.7911 33.1378Z" fill="#F2F0EC"/>
</svg>
