<svg width="30" height="30" viewBox="0 0 30 30" fill="none" xmlns="http://www.w3.org/2000/svg">
<path d="M0.827301 12.5706H29.1727C29.6298 12.5706 30 12.2395 30 11.8307C30 11.4219 29.6298 11.0907 29.1727 11.0907H0.827301C0.370217 11.0907 0 11.4219 0 11.8307C0 12.2395 0.370217 12.5706 0.827301 12.5706ZM29.1722 17.429H0.827301C0.370217 17.429 0 17.7601 0 18.1689C0 18.5777 0.370217 18.9088 0.827301 18.9088H29.1727C29.6298 18.9088 30 18.5777 30 18.1689C30 17.7601 29.6293 17.429 29.1722 17.429ZM19.7296 23.9836L15 28.2136L10.2704 23.9836C9.94726 23.6946 9.42347 23.6946 9.10083 23.9836C8.77766 24.2727 8.77766 24.7411 9.10083 25.0301L14.4152 29.7831C14.5703 29.9223 14.7808 30.0005 15 30C15.2115 30 15.4235 29.9279 15.5848 29.7831L20.8997 25.0301C21.2229 24.7411 21.2229 24.2727 20.8997 23.9836C20.5765 23.6941 20.0527 23.6941 19.7296 23.9836ZM9.68511 6.23326C9.89659 6.23326 10.1086 6.16112 10.2699 6.01637L14.9995 1.78641L19.7291 6.01637C20.0522 6.3054 20.576 6.3054 20.8992 6.01637C21.2223 5.72734 21.2223 5.25889 20.8992 4.97033L15.5848 0.216885C15.4297 0.0781527 15.2192 0 15 0C14.7808 0 14.5703 0.0781527 14.4152 0.216885L9.09979 4.96986C8.77663 5.25889 8.77663 5.72734 9.09979 6.01591C9.26163 6.16065 9.47311 6.23326 9.68511 6.23326Z" fill="#B59152"/>
</svg>
