<svg width="45" height="45" viewBox="0 0 45 45" fill="none" xmlns="http://www.w3.org/2000/svg">
<g clip-path="url(#clip0_2334_2263)">
<mask id="mask0_2334_2263" style="mask-type:luminance" maskUnits="userSpaceOnUse" x="0" y="0" width="45" height="45">
<path d="M0.0131816 45L0.0131836 0.0065918L45 0.00659376L45 45L0.0131816 45Z" fill="white"/>
</mask>
<g mask="url(#mask0_2334_2263)">
<path d="M28.8055 18.4328C29.4574 17.7808 30.5138 17.7808 31.1658 18.4328C31.8177 19.0848 31.8177 20.1412 31.1658 20.7932L23.7704 28.1889C23.7479 28.2339 23.7029 28.2789 23.6579 28.3239C23.321 28.6609 22.8935 28.8184 22.4665 28.8184C22.0396 28.8184 21.5901 28.6389 21.2751 28.3239C21.2301 28.2789 21.2076 28.2339 21.1626 28.1889L13.7453 20.7932C13.0934 20.1412 13.0934 19.0848 13.7453 18.4328C14.3973 17.7808 15.4537 17.7808 16.1056 18.4328L22.4671 24.7945L28.8055 18.4328Z" fill="#B59152"/>
</g>
<mask id="mask1_2334_2263" style="mask-type:luminance" maskUnits="userSpaceOnUse" x="0" y="0" width="45" height="45">
<path d="M0.0131816 45L0.0131836 0.0065918L45 0.00659376L45 45L0.0131816 45Z" fill="white"/>
</mask>
<g mask="url(#mask1_2334_2263)">
<path d="M44.9451 22.4791C44.9451 16.4774 42.6073 10.8126 38.3587 6.58624C34.1106 2.36042 28.4686 1.24441e-06 22.4671 9.82073e-07C16.4656 7.19741e-07 10.8011 2.33792 6.57495 6.58624C-2.19181 15.3534 -2.19182 29.6274 6.57495 38.3945C15.3412 47.1612 29.615 47.1612 38.3812 38.3945C42.6073 34.1457 44.9451 28.5034 44.9451 22.4791ZM3.33825 22.4791C3.33825 17.5788 5.2041 12.678 8.93526 8.96916C12.5539 5.34977 17.342 3.37187 22.4671 3.37187C27.5922 3.37187 32.3797 5.34977 35.9764 8.96916C39.5956 12.5885 41.5959 17.3763 41.5734 22.4791C41.5734 27.6045 39.5956 32.3922 35.9764 35.9891C28.5136 43.4524 16.3981 43.4524 8.93526 35.9891C5.22605 32.2803 3.33825 27.3794 3.33825 22.4791Z" fill="#B59152"/>
</g>
</g>
<defs>
<clipPath id="clip0_2334_2263">
<rect width="45" height="45" fill="white" transform="matrix(-4.37114e-08 1 1 4.37114e-08 0 0)"/>
</clipPath>
</defs>
</svg>
