<svg width="10" height="6" viewBox="0 0 10 6" fill="none" xmlns="http://www.w3.org/2000/svg">
<mask id="mask0_2337_196" style="mask-type:luminance" maskUnits="userSpaceOnUse" x="0" y="0" width="10" height="6">
<path d="M9.99902 0.617849L9.99902 6L0.000225067 6L0.000224832 0.61785L9.99902 0.617849Z" fill="white"/>
</mask>
<g mask="url(#mask0_2337_196)">
<path d="M9.17789 5.86184L5.03173 1.73877L0.823979 5.83521C0.639209 6.01701 0.338907 6.01643 0.153352 5.83386C-0.0322037 5.65129 -0.0327921 5.35582 0.199447 5.17421L4.64061 0.804495C4.70769 0.745632 4.78694 0.677699 4.8297 0.666506C5.00407 0.597608 5.21826 0.63196 5.3944 0.770142L9.89755 5.20084C10.0364 5.38419 10.037 5.68101 9.85146 5.86358C9.6659 6.04615 9.36423 6.04538 9.17789 5.86184Z" fill="white"/>
</g>
</svg>
