<svg width="11" height="16" viewBox="0 0 11 16" fill="none" xmlns="http://www.w3.org/2000/svg">
<path d="M10.489 8.56775L10.4888 8.56749L10.4828 8.57278L3.37104 14.8471C3.03503 15.1435 2.5723 15.3065 2.09622 15.3357C1.62022 15.3648 1.14015 15.2595 0.772167 15.0307C0.372933 14.7784 0.16702 14.441 0.130378 14.1073C0.0937656 13.7738 0.224451 13.43 0.5265 13.1593C0.526596 13.1592 0.526692 13.1591 0.526788 13.159L6.60355 7.80225L6.68665 7.72899L6.60355 7.65574L0.526235 2.29847C0.526226 2.29846 0.526215 2.29845 0.526206 2.29844C0.191401 2.00305 0.0622339 1.64787 0.105881 1.31661C0.149679 0.984208 0.369881 0.658414 0.768871 0.429298L0.768914 0.429373L0.772393 0.427175C1.17275 0.174286 1.66862 0.0692863 2.14353 0.104157C2.61889 0.139062 3.06425 0.313319 3.36764 0.607747L3.36756 0.607826L3.37104 0.610897L10.4828 6.88521L10.4826 6.88546L10.489 6.89024C10.7841 7.11054 10.9023 7.41737 10.9023 7.72899C10.9023 8.04062 10.7841 8.34745 10.489 8.56775Z" fill="#B59152" stroke="#B59152" stroke-width="0.195312"/>
</svg>
