<svg width="61" height="61" viewBox="0 0 61 61" fill="none" xmlns="http://www.w3.org/2000/svg">
<g filter="url(#filter0_d_3109_486)">
<ellipse cx="28.5" cy="26.5" rx="22.5" ry="22.5" transform="rotate(90 28.5 26.5)" fill="#B59152"/>
</g>
<mask id="mask0_3109_486" style="mask-type:luminance" maskUnits="userSpaceOnUse" x="11" y="9" width="36" height="36">
<path d="M46.0061 44.0071H11V9.00609H46.0061V44.0071Z" fill="white"/>
</mask>
<g mask="url(#mask0_3109_486)">
<path d="M25.336 21.6059C24.8288 21.0987 24.8288 20.2767 25.336 19.7695C25.8433 19.2623 26.6652 19.2623 27.1725 19.7695L32.9266 25.5233C32.9616 25.5408 32.9966 25.5758 33.0316 25.6108C33.2938 25.873 33.4163 26.2056 33.4163 26.5378C33.4163 26.87 33.2767 27.2196 33.0316 27.4647C32.9966 27.4997 32.9616 27.5172 32.9266 27.5522L27.1725 33.3231C26.6652 33.8304 25.8433 33.8304 25.336 33.3231C24.8288 32.8159 24.8288 31.994 25.336 31.4867L30.2856 26.5374L25.336 21.6059Z" fill="#F3F0EC"/>
</g>
<defs>
<filter id="filter0_d_3109_486" x="0" y="0" width="61" height="61" filterUnits="userSpaceOnUse" color-interpolation-filters="sRGB">
<feFlood flood-opacity="0" result="BackgroundImageFix"/>
<feColorMatrix in="SourceAlpha" type="matrix" values="0 0 0 0 0 0 0 0 0 0 0 0 0 0 0 0 0 0 127 0" result="hardAlpha"/>
<feOffset dx="2" dy="4"/>
<feGaussianBlur stdDeviation="4"/>
<feComposite in2="hardAlpha" operator="out"/>
<feColorMatrix type="matrix" values="0 0 0 0 0 0 0 0 0 0 0 0 0 0 0 0 0 0 0.2 0"/>
<feBlend mode="normal" in2="BackgroundImageFix" result="effect1_dropShadow_3109_486"/>
<feBlend mode="normal" in="SourceGraphic" in2="effect1_dropShadow_3109_486" result="shape"/>
</filter>
</defs>
</svg>
