<svg width="45" height="45" viewBox="0 0 45 45" fill="none" xmlns="http://www.w3.org/2000/svg">
<mask id="mask0_2334_3536" style="mask-type:luminance" maskUnits="userSpaceOnUse" x="0" y="0" width="45" height="45">
<path d="M45 44.9868L0.0065918 44.9868L0.0065918 -1.90735e-05L45 -1.90735e-05L45 44.9868Z" fill="white"/>
</mask>
<g mask="url(#mask0_2334_3536)">
<path d="M18.4328 16.1945C17.7808 15.5426 17.7808 14.4862 18.4328 13.8342C19.0848 13.1823 20.1412 13.1823 20.7932 13.8342L28.189 21.2296C28.234 21.2521 28.279 21.2971 28.324 21.3421C28.6609 21.679 28.8184 22.1065 28.8184 22.5335C28.8184 22.9604 28.639 23.4099 28.324 23.7249C28.279 23.7699 28.234 23.7924 28.189 23.8374L20.7932 31.2547C20.1412 31.9066 19.0848 31.9066 18.4328 31.2547C17.7808 30.6027 17.7808 29.5463 18.4328 28.8944L24.7946 22.5329L18.4328 16.1945Z" fill="white"/>
</g>
<mask id="mask1_2334_3536" style="mask-type:luminance" maskUnits="userSpaceOnUse" x="0" y="0" width="45" height="45">
<path d="M45 44.9868L0.0065918 44.9868L0.0065918 -1.90735e-05L45 -1.90735e-05L45 44.9868Z" fill="white"/>
</mask>
<g mask="url(#mask1_2334_3536)">
<path opacity="0.8" d="M22.4956 5C17.8244 5 13.4155 6.8205 10.1261 10.129C6.83713 13.4372 5 17.8307 5 22.5042C5 27.1777 6.81961 31.5888 10.1261 34.8798C16.9496 41.7067 28.0591 41.7067 34.8827 34.8798C41.7058 28.0533 41.7058 16.938 34.8827 10.1115C31.5757 6.8205 27.1843 5 22.4956 5ZM22.4956 37.4003C18.6817 37.4003 14.8673 35.9473 11.9807 33.0418C9.16375 30.2239 7.62434 26.4952 7.62434 22.5042C7.62434 18.5132 9.16375 14.785 11.9807 11.9842C14.7977 9.1658 18.5241 7.60811 22.4956 7.62563C26.4847 7.62563 30.211 9.1658 33.0105 11.9842C38.8192 17.7957 38.8192 27.2303 33.0105 33.0418C30.1239 35.9302 26.3095 37.4003 22.4956 37.4003Z" fill="white"/>
</g>
</svg>
