<svg width="20" height="20" viewBox="0 0 20 20" fill="none" xmlns="http://www.w3.org/2000/svg">
<g clip-path="url(#clip0_2195_5)">
<path d="M16.1855 13.9652C16.247 14.0113 16.3052 14.0619 16.3595 14.1164L19.5335 17.2903C20.1534 17.91 20.1534 18.9147 19.5339 19.5346L19.5335 19.535C18.9138 20.1549 17.9091 20.1549 17.2892 19.5354L17.2888 19.535L14.115 16.3609C14.0617 16.3052 14.0125 16.2458 13.9678 16.1831C12.4784 17.222 10.7054 17.7774 8.88952 17.7739C3.9814 17.7739 0.00256348 13.7951 0.00256348 8.88696C0.00256348 3.97884 3.9814 0 8.88952 0C13.7976 0 17.7765 3.97884 17.7765 8.88696C17.7799 10.7029 17.2244 12.4758 16.1855 13.9652ZM8.88952 15.8695C12.7459 15.8695 15.872 12.7433 15.872 8.88696C15.872 5.03058 12.7457 1.90426 8.88952 1.90426C5.03334 1.90426 1.90683 5.03058 1.90683 8.88696C1.90683 12.7433 5.03314 15.8695 8.88952 15.8695Z" fill="#B59152"/>
</g>
<defs>
<clipPath id="clip0_2195_5">
<rect width="20" height="20" fill="white"/>
</clipPath>
</defs>
</svg>
