<svg width="45" height="45" viewBox="0 0 45 45" fill="none" xmlns="http://www.w3.org/2000/svg">
<g opacity="0.5">
<mask id="mask0_2334_3548" style="mask-type:luminance" maskUnits="userSpaceOnUse" x="0" y="0" width="45" height="45">
<path d="M44.9868 0.000240326L44.9868 44.9937L-1.90735e-05 44.9937L-2.10402e-05 0.000242292L44.9868 0.000240326Z" fill="white"/>
</mask>
<g mask="url(#mask0_2334_3548)">
<path d="M16.1945 26.5674C15.5426 27.2194 14.4862 27.2194 13.8342 26.5674C13.1823 25.9154 13.1823 24.859 13.8342 24.207L21.2296 16.8113C21.2521 16.7663 21.2971 16.7213 21.3421 16.6763C21.679 16.3393 22.1065 16.1818 22.5335 16.1818C22.9604 16.1818 23.4099 16.3612 23.7249 16.6763C23.7699 16.7213 23.7924 16.7663 23.8374 16.8113L31.2547 24.207C31.9066 24.859 31.9066 25.9154 31.2547 26.5674C30.6027 27.2194 29.5463 27.2194 28.8944 26.5674L22.5329 20.2056L16.1945 26.5674Z" fill="white"/>
</g>
<mask id="mask1_2334_3548" style="mask-type:luminance" maskUnits="userSpaceOnUse" x="0" y="0" width="45" height="45">
<path d="M44.9868 0.000240326L44.9868 44.9937L-1.90735e-05 44.9937L-2.10402e-05 0.000242292L44.9868 0.000240326Z" fill="white"/>
</mask>
<g mask="url(#mask1_2334_3548)">
<path opacity="0.8" d="M5 22.5046C5 27.1758 6.8205 31.5847 10.129 34.8741C13.4372 38.1631 17.8307 40.0002 22.5042 40.0002C27.1777 40.0002 31.5888 38.1806 34.8798 34.8741C41.7067 28.0506 41.7067 16.9411 34.8798 10.1176C28.0533 3.29447 16.938 3.29447 10.1115 10.1176C6.8205 13.4245 5 17.8159 5 22.5046ZM37.4003 22.5046C37.4003 26.3185 35.9473 30.1329 33.0418 33.0195C30.2239 35.8365 26.4952 37.3759 22.5042 37.3759C18.5132 37.3759 14.785 35.8365 11.9842 33.0195C9.1658 30.2025 7.60811 26.4762 7.62563 22.5046C7.62563 18.5156 9.1658 14.7892 11.9842 11.9897C17.7957 6.18107 27.2303 6.18107 33.0418 11.9897C35.9302 14.8763 37.4003 18.6907 37.4003 22.5046Z" fill="white"/>
</g>
</g>
</svg>
