<svg width="29" height="29" viewBox="0 0 29 29" fill="none" xmlns="http://www.w3.org/2000/svg">
<mask id="mask0_2594_4749" style="mask-type:luminance" maskUnits="userSpaceOnUse" x="0" y="0" width="29" height="29">
<path d="M28.2803 -3.24249e-05L28.2803 28.2842L0.000139236 28.2842L0.000138 -3.11888e-05L28.2803 -3.24249e-05Z" fill="white"/>
</mask>
<g mask="url(#mask0_2594_4749)">
<path d="M10.1809 16.701C9.77105 17.1108 9.10696 17.1108 8.69712 16.701C8.28729 16.2911 8.28729 15.627 8.69712 15.2171L13.3461 10.5679C13.3602 10.5397 13.3885 10.5114 13.4168 10.4831C13.6286 10.2713 13.8974 10.1722 14.1658 10.1722C14.4341 10.1722 14.7167 10.2851 14.9147 10.4831C14.943 10.5114 14.9571 10.5397 14.9854 10.5679L19.6482 15.2171C20.058 15.627 20.058 16.2911 19.6482 16.701C19.2384 17.1108 18.5743 17.1108 18.1644 16.701L14.1654 12.7018L10.1809 16.701Z" fill="#B59152"/>
</g>
<mask id="mask1_2594_4749" style="mask-type:luminance" maskUnits="userSpaceOnUse" x="0" y="0" width="29" height="29">
<path d="M28.2803 -3.24249e-05L28.2803 28.2842L0.000139236 28.2842L0.000138 -3.11888e-05L28.2803 -3.24249e-05Z" fill="white"/>
</mask>
<g mask="url(#mask1_2594_4749)">
<path d="M0.0345682 14.1574C0.0345683 17.9303 1.50419 21.4913 4.17503 24.1481C6.84552 26.8046 10.3923 28.2885 14.165 28.2885C17.9377 28.2885 21.4986 26.8188 24.1553 24.1481C29.6663 18.6368 29.6663 9.66377 24.1553 4.15244C18.6446 -1.35855 9.6716 -1.35855 4.16088 4.15244C1.50419 6.82341 0.034568 10.3703 0.0345682 14.1574ZM26.19 14.1574C26.19 17.2378 25.017 20.3187 22.6715 22.6502C20.3967 24.9254 17.3868 26.1688 14.165 26.1688C10.9432 26.1688 7.93359 24.9254 5.67259 22.6502C3.39744 20.3749 2.13999 17.3651 2.15413 14.1574C2.15413 10.9354 3.39744 7.92567 5.67259 5.66456C10.364 0.972939 17.9801 0.972939 22.6715 5.66456C25.0032 7.99605 26.19 11.0769 26.19 14.1574Z" fill="#B59152"/>
</g>
</svg>
