<svg width="24" height="24" viewBox="0 0 24 24" fill="none" xmlns="http://www.w3.org/2000/svg">
<mask id="mask0_2235_2652" style="mask-type:luminance" maskUnits="userSpaceOnUse" x="0" y="0" width="24" height="24">
<path fill-rule="evenodd" clip-rule="evenodd" d="M0 0H24V24H0V0Z" fill="white"/>
</mask>
<g mask="url(#mask0_2235_2652)">
<path fill-rule="evenodd" clip-rule="evenodd" d="M14.034 22.8475C15.4577 21.6271 16.2713 19.9322 16.8137 18.1695C18.1695 18.4407 19.3898 18.9153 20.0678 19.5254C18.5085 21.2204 16.4067 22.4407 14.034 22.8475ZM3.93219 19.5254C4.61019 18.9153 5.83052 18.4407 7.18653 18.1695C7.72889 19.9322 8.61018 21.6949 9.96615 22.8475C7.59325 22.4407 5.49147 21.2204 3.93219 19.5254ZM9.96615 1.1525C8.54237 2.3729 7.66106 4.13557 7.11869 5.96611C5.76272 5.62709 4.54239 5.1525 3.86438 4.54236C5.49147 2.77963 7.59325 1.55929 9.96615 1.1525ZM20.1357 4.54236C19.4576 5.1525 18.2373 5.62709 16.8814 5.89833C16.3391 4.13557 15.4577 2.3729 14.034 1.1525C16.4067 1.55929 18.5085 2.77963 20.1357 4.54236ZM17.6949 12.4745H23.0509C22.9153 14.8474 22.1018 17.0169 20.678 18.7796C19.8644 18.034 18.5085 17.5593 17.0847 17.2203C17.4916 15.3898 17.6271 13.5593 17.6949 12.4745ZM12.4746 16.7458V12.4745H16.7458C16.7458 13.4238 16.6102 15.1865 16.1356 17.0847C14.8475 16.8814 13.4916 16.7458 12.4746 16.7458ZM12.4746 22.7797V17.6949C13.4916 17.6949 14.7119 17.8305 15.8644 18.034C15.2542 19.9322 14.2373 21.8305 12.4746 22.7797ZM11.5254 17.6949V22.7797C9.76274 21.8305 8.74582 19.9322 8.13562 17.9662C9.28818 17.7627 10.5085 17.6949 11.5254 17.6949ZM7.2542 12.4745H11.5254V16.7458C10.5763 16.7458 9.28818 16.8136 7.86437 17.0847C7.38981 15.1865 7.32201 13.4238 7.2542 12.4745ZM11.5254 7.32199V11.5254H7.2542C7.2542 10.5763 7.38981 8.81357 7.86437 7.0509C9.22038 7.25418 10.5763 7.32199 11.5254 7.32199ZM11.5254 1.22034V6.3729C10.5085 6.3729 9.28818 6.23729 8.13562 6.10165C8.67798 4.13557 9.76274 2.23726 11.5254 1.22034ZM12.4746 6.3729V1.22034C14.2373 2.16943 15.2542 4.13557 15.8644 6.10165C14.7119 6.30506 13.4916 6.3729 12.4746 6.3729ZM16.7458 11.5254H12.4746V7.32199C13.5593 7.32199 14.8475 7.18651 16.1356 6.98303C16.6102 8.81357 16.678 10.5763 16.7458 11.5254ZM20.7458 5.22036C22.1018 6.98303 22.9153 9.15252 23.0509 11.5254H17.6949C17.6949 10.4407 17.5593 8.67796 17.0847 6.84743C18.5764 6.50853 19.9322 5.96611 20.7458 5.22036ZM3.25422 5.22036C4.06782 5.96611 5.4238 6.50853 6.91528 6.84743C6.50853 8.67796 6.37292 10.4407 6.37292 11.5254H1.01692C1.08473 9.15252 1.89834 6.98303 3.25422 5.22036ZM3.32202 18.7796C1.96617 17.0169 1.08473 14.8474 0.949121 12.4745H6.30508C6.30508 13.5593 6.44072 15.3898 6.91528 17.2203C5.49147 17.5593 4.13563 18.034 3.32202 18.7796ZM24 12C24 5.35597 18.6442 0 12 0C5.35599 0 0 5.35597 0 12C0 18.5764 5.35599 24 11.9322 24H12.0678C18.6442 24 24 18.5764 24 12Z" fill="#B59152"/>
</g>
</svg>
